<?xml version="1.0" encoding="UTF-8" standalone="no"?>
<!-- Created with Inkscape (http://www.inkscape.org/) -->

<svg
   width="50mm"
   height="50mm"
   viewBox="0 0 50 50"
   version="1.1"
   id="svg1"
   xml:space="preserve"
   inkscape:version="1.4.2 (ebf0e940d0, 2025-05-08)"
   sodipodi:docname="favicon.svg"
   xmlns:inkscape="http://www.inkscape.org/namespaces/inkscape"
   xmlns:sodipodi="http://sodipodi.sourceforge.net/DTD/sodipodi-0.dtd"
   xmlns:xlink="http://www.w3.org/1999/xlink"
   xmlns="http://www.w3.org/2000/svg"
   xmlns:svg="http://www.w3.org/2000/svg"><sodipodi:namedview
     id="namedview1"
     pagecolor="#ffffff"
     bordercolor="#000000"
     borderopacity="0.25"
     inkscape:showpageshadow="2"
     inkscape:pageopacity="0.0"
     inkscape:pagecheckerboard="0"
     inkscape:deskcolor="#d1d1d1"
     inkscape:document-units="mm"
     inkscape:zoom="2.8507295"
     inkscape:cx="113.83051"
     inkscape:cy="152.24173"
     inkscape:window-width="1920"
     inkscape:window-height="1043"
     inkscape:window-x="0"
     inkscape:window-y="0"
     inkscape:window-maximized="1"
     inkscape:current-layer="layer1" /><defs
     id="defs1"><linearGradient
       id="linearGradient43"
       inkscape:collect="always"><stop
         style="stop-color:#000000;stop-opacity:1;"
         offset="0"
         id="stop44" /><stop
         style="stop-color:#000000;stop-opacity:0.48057261;"
         offset="0.23123424"
         id="stop45" /><stop
         style="stop-color:#000000;stop-opacity:0.68302661;"
         offset="0.50391555"
         id="stop46" /></linearGradient><linearGradient
       id="linearGradient31"
       inkscape:collect="always"><stop
         style="stop-color:#f25a7c;stop-opacity:1;"
         offset="0"
         id="stop32" /><stop
         style="stop-color:#fff5f5;stop-opacity:1;"
         offset="1"
         id="stop33" /></linearGradient><linearGradient
       id="linearGradient28"
       inkscape:collect="always"><stop
         style="stop-color:#d5a3d0;stop-opacity:1;"
         offset="0"
         id="stop29" /><stop
         style="stop-color:#75375f;stop-opacity:1;"
         offset="0.10832024"
         id="stop35" /><stop
         style="stop-color:#f8b1e6;stop-opacity:1;"
         offset="0.29984301"
         id="stop36" /><stop
         style="stop-color:#6f3372;stop-opacity:1;"
         offset="0.57325977"
         id="stop30" /><stop
         style="stop-color:#feb7f1;stop-opacity:1;"
         offset="0.79645038"
         id="stop31" /><stop
         style="stop-color:#763860;stop-opacity:1;"
         offset="0.91501188"
         id="stop34" /></linearGradient><linearGradient
       id="swatch23"><stop
         style="stop-color:#000000;stop-opacity:1;"
         offset="0"
         id="stop24" /></linearGradient><clipPath
       clipPathUnits="userSpaceOnUse"
       id="clipPath54"><path
         id="path54"
         style="stroke-width:0.0999999;stroke-linecap:square;paint-order:markers fill stroke;stop-color:#000000"
         d="m 1691.1994,-792.32001 h 1634.8919 v 92.82806 H 1691.1994 Z" /></clipPath><mask
       maskUnits="userSpaceOnUse"
       id="mask2"><path
         style="fill:#f9f9f9;stroke-width:3.2"
         d="m 103.11469,141.8175 -20.325943,-14.47875 11.694377,-32.762813 26.822806,-0.37125 -3.15562,13.829063 -6.40406,7.23937 -0.37125,6.49688 c 1.26769,0.49136 1.06929,2.35786 1.47841,5.76836 z"
         id="path2"
         sodipodi:nodetypes="ccccccccc" /></mask><radialGradient
       inkscape:collect="always"
       xlink:href="#linearGradient28"
       id="radialGradient30"
       cx="69.624695"
       cy="53.317772"
       fx="69.624695"
       fy="53.317772"
       r="5.3745074"
       gradientTransform="matrix(1.3914664,3.0456152,-3.351761,1.5313377,136.36829,-241.39743)"
       gradientUnits="userSpaceOnUse" /><linearGradient
       inkscape:collect="always"
       xlink:href="#linearGradient31"
       id="linearGradient33"
       x1="57.157219"
       y1="74.26445"
       x2="67.108017"
       y2="40.903587"
       gradientUnits="userSpaceOnUse" /><filter
       inkscape:collect="always"
       style="color-interpolation-filters:sRGB"
       id="filter39"
       x="-0.040635086"
       y="-0.025066915"
       width="1.0812702"
       height="1.0501338"><feGaussianBlur
         inkscape:collect="always"
         stdDeviation="0.35937108"
         id="feGaussianBlur39" /></filter><linearGradient
       inkscape:collect="always"
       xlink:href="#linearGradient43"
       id="linearGradient45"
       x1="54.105247"
       y1="51.742378"
       x2="75.085152"
       y2="59.724251"
       gradientUnits="userSpaceOnUse"
       gradientTransform="translate(0.47862054,0.07029241)" /></defs><g
     inkscape:label="Layer 1"
     inkscape:groupmode="layer"
     id="layer1"
     transform="translate(-64.314438,-73.395287)"><circle
       style="fill:#1ca3dd;fill-opacity:1;stroke-width:2.72519"
       id="path3"
       cx="89.314438"
       cy="98.395287"
       r="25" /><g
       id="g47"
       transform="translate(30.687775,43.575243)"><path
         id="path4-6-7"
         style="opacity:0.817259;mix-blend-mode:normal;fill:url(#linearGradient45);stroke:none;stroke-width:3.2;filter:url(#filter39)"
         d="m 69.287381,37.857345 c 0.202023,0.24309 0.369971,0.519447 0.504362,0.796851 0.245054,0.505828 0.307708,1.094699 0.311608,1.656746 0.0088,1.276727 -0.26223,2.559506 -0.65629,3.77393 -0.272522,0.839865 -0.661797,1.652965 -1.164787,2.378667 -0.848487,1.224175 -1.744809,2.565069 -3.06803,3.248897 -0.731084,0.377817 -1.629493,0.456417 -2.444812,0.344682 -0.473139,-0.06484 -0.911195,-0.315885 -1.312581,-0.574642 -0.01252,-0.0081 -0.02549,-0.01647 -0.03876,-0.02584 0.114146,0.116984 0.413063,0.415269 0.609781,0.542086 0.401386,0.258757 0.842826,0.488652 1.312582,0.574642 0.748719,0.137053 1.59059,0.206341 2.280481,-0.115238 1.43455,-0.668687 2.336016,-2.173872 3.232361,-3.478341 0.500049,-0.727731 0.892264,-1.538801 1.164786,-2.378666 0.39406,-1.214424 0.665072,-2.497203 0.656291,-3.77393 -0.0039,-0.562047 -0.06655,-1.150918 -0.311609,-1.656746 -0.245284,-0.506306 -0.601589,-1.008715 -1.075386,-1.313099 z m -7.16132,4.150135 c -2.733165,2.12716 -3.905337,5.774854 -5.246709,8.967928 -0.926461,2.205397 -1.45955,4.57048 -1.886706,6.924125 -0.262866,1.448403 -0.512041,2.928604 -0.410311,4.397148 0.08737,1.261187 0.225869,2.603273 0.869714,3.691247 0.242108,0.409115 0.574899,0.801327 0.973068,1.075387 -0.152587,-0.175238 -0.287437,-0.365478 -0.402043,-0.559139 -0.643845,-1.087974 -0.782348,-2.430061 -0.869714,-3.691248 -0.10173,-1.468544 0.147445,-2.948744 0.410311,-4.397147 0.427156,-2.353645 0.960245,-4.718212 1.886706,-6.923609 1.341372,-3.193074 2.513543,-6.841285 5.246708,-8.968445 0.416953,-0.324505 2.222081,-1.579578 4.006991,-0.53175 0.189302,0.11113 0.429938,0.195366 0.649056,0.296106 C 67.21798,41.82788 64.651605,40.041908 62.126061,42.00748 Z m 3.47834,19.935734 c 0,0 0.01257,0.03537 0.02894,0.09095 0.03048,0.04511 0.05546,0.08933 0.07286,0.131258 0.174265,0.419717 0.993755,0.781596 0.993755,0.781596 0,0 -0.142364,0.555541 -0.279053,0.804086 -0.804661,1.463144 -2.782029,3.409247 -4.045247,4.501285 -1.383042,1.195624 -3.028474,2.118665 -4.74183,2.756421 -1.246512,0.463984 -2.591423,0.711097 -3.921207,0.738457 -0.757039,0.01558 -1.524808,-0.103532 -2.247925,-0.328146 -0.711187,-0.220908 -1.418747,-0.522996 -2.015381,-0.968933 0.150308,0.163845 0.313072,0.315181 0.486275,0.451135 0.613742,0.481751 1.355015,0.802599 2.10013,1.034046 0.723117,0.224614 1.490886,0.343721 2.247925,0.328145 1.329784,-0.02736 2.674696,-0.274472 3.921208,-0.738456 1.713356,-0.637756 3.358787,-1.560797 4.741829,-2.756421 1.263218,-1.092038 3.240587,-3.038142 4.045248,-4.501286 0.136689,-0.248545 0.279053,-0.804085 0.279053,-0.804085 0,0 -0.81949,-0.361879 -0.993755,-0.781596 -0.127668,-0.307487 -0.672827,-0.738456 -0.672827,-0.738456 z"
         sodipodi:nodetypes="sscssssscssssscscscssscsssssscsccscssssscsssssscsccc" /><path
         style="opacity:0.4;fill:#f9f9f9;fill-opacity:1;stroke-width:3.2"
         d="m 63.835124,44.849174 -1.148498,-0.147664 -2.404503,3.407753 c 0,0 0.665142,0.932416 1.120346,1.263547 0.386192,0.28093 0.839427,0.509405 1.312566,0.574246 0.815319,0.111735 1.713574,0.03327 2.444658,-0.344547 1.323221,-0.683828 2.219637,-2.024429 3.068124,-3.248604 0.50299,-0.725702 0.967012,-1.518516 1.164904,-2.379028 0.376298,-1.636289 0.840719,-3.593238 -0.01641,-5.036976 -0.770962,-1.298602 -2.471851,-1.995718 -3.970516,-2.182143 -1.312406,-0.163256 -2.654871,0.412368 -3.839257,1.000834 -1.939094,0.963446 -3.548396,2.51217 -5.102604,4.019735 -1.014306,0.983867 -1.902833,2.098304 -2.723575,3.248605 -0.819327,1.148317 -1.538928,2.370495 -2.182144,3.625964 -1.145064,2.235008 -2.140989,4.5532 -2.969683,6.923791 -0.546402,1.563055 -1.041653,3.157377 -1.312566,4.790871 -0.248328,1.497318 -0.452922,3.036997 -0.278921,4.544761 0.161666,1.400875 0.545317,2.811067 1.214125,4.052551 0.270666,0.502427 0.650358,0.960194 1.099275,1.312567 0.834823,0.655287 3.158989,1.522895 4.085364,1.591488 1.331953,0.09862 2.721009,-0.04419 3.974979,-0.503956 1.848283,-0.677673 3.433694,-1.965556 4.950476,-3.220452 1.801139,-1.490156 4.857582,-5.05825 4.857582,-5.05825 l 4.81e-4,-0.653126 c 0,0 -1.076781,-0.107654 -1.527427,-0.375654 -0.286158,-0.170179 -0.67269,-0.738319 -0.67269,-0.738319 0,0 0.157563,0.453921 0.09844,0.672691 -0.288344,1.066955 -1.261752,1.835589 -2.067293,2.592318 -0.924468,0.868449 -1.988221,1.604284 -3.117345,2.182144 -0.340273,0.174144 -0.70743,0.30554 -1.082868,0.377362 -0.629053,0.120339 -1.316984,0.298856 -1.919629,0.08204 -0.630373,-0.226792 -1.15186,-0.768844 -1.493046,-1.345382 -0.643845,-1.087974 -0.782208,-2.430407 -0.869574,-3.691594 -0.10173,-1.468544 0.147309,-2.948697 0.410175,-4.3971 0.427156,-2.353645 0.943802,-4.725421 1.886816,-6.923791 1.331277,-3.103494 2.655518,-6.500939 5.246769,-8.666438 0.877281,-0.733141 2.064423,-1.332067 3.20288,-1.227034 0.792038,0.07307 1.700031,0.581156 2.034481,1.246939 0.125171,0.588046 -0.427512,1.220219 -0.935204,1.542267 -0.264694,0.167906 -0.622179,0.08201 -0.935205,0.09844 -0.071,0.0037 -0.145566,-0.02163 -0.213292,0 -0.541754,0.173065 -1.390193,0.989144 -1.390193,0.989144 z"
         id="path4-6-3"
         sodipodi:nodetypes="cccaaaaaaaaaaaaaaaaaaaccacaaaaaaaaaaaaaaac" /><path
         style="fill:url(#linearGradient33);fill-opacity:1;stroke:url(#radialGradient30);stroke-width:0.35;stroke-dasharray:none"
         d="m 63.922011,42.116991 -1.148498,-0.147664 -2.772796,5.955774 c 0,0 0.408916,0.431188 0.656283,0.590656 0.401385,0.258757 0.84281,0.488257 1.312566,0.574246 0.748718,0.137054 1.577848,0.177592 2.280587,-0.114848 1.21527,-0.505727 2.117008,-1.615305 2.92046,-2.657948 0.613671,-0.796365 1.129485,-1.704562 1.394603,-2.674356 0.43417,-1.588178 0.939476,-3.431884 0.26183,-4.93242 -0.386345,-0.855498 -1.310796,-1.472594 -2.208361,-1.747395 -1.771308,-0.542309 -3.801033,-0.216358 -5.541697,0.417456 -2.180857,0.794098 -3.952722,2.484918 -5.653849,4.063809 -1.035721,0.961298 -1.902833,2.098304 -2.723575,3.248605 -0.819327,1.148317 -1.538928,2.370495 -2.182144,3.625964 -1.145064,2.235008 -2.140989,4.5532 -2.969683,6.923791 -0.546402,1.563055 -1.041653,3.157377 -1.312566,4.790871 -0.248328,1.497318 -0.452922,3.036997 -0.278921,4.544761 0.161666,1.400875 0.545317,2.811067 1.214125,4.052551 0.270666,0.502427 0.650358,0.960194 1.099275,1.312567 0.613742,0.481751 1.354991,0.8022 2.100106,1.033647 0.723117,0.224614 1.490732,0.343718 2.247771,0.328142 1.329784,-0.02736 2.674782,-0.274336 3.921294,-0.73832 1.713356,-0.637756 3.290716,-1.64413 4.741648,-2.756389 1.571417,-1.20462 2.818446,-2.781822 4.216622,-4.183809 0.365612,-0.366609 1.091028,-1.105588 1.091028,-1.105588 0,0 -0.541353,-0.37738 -0.761724,-0.619287 -0.318453,-0.349572 -0.788705,-1.179178 -0.788705,-1.179178 0,0 -0.601396,1.068053 -0.989232,1.538485 -0.610073,0.739998 -1.337412,1.38077 -2.078895,1.989037 -0.980652,0.804466 -1.988221,1.604284 -3.117345,2.182144 -0.340273,0.174144 -0.70743,0.30554 -1.082868,0.377362 -0.629053,0.120339 -1.316984,0.298856 -1.919629,0.08204 -0.630373,-0.226792 -1.15186,-0.768844 -1.493046,-1.345382 -0.643845,-1.087974 -0.782208,-2.430407 -0.869574,-3.691594 -0.10173,-1.468544 0.147309,-2.948697 0.410175,-4.3971 0.427156,-2.353645 1.054819,-4.68105 1.886816,-6.923791 0.707901,-1.908226 1.56486,-3.775462 2.625134,-5.512779 0.784653,-1.285696 1.599431,-2.609366 2.739983,-3.593152 0.822985,-0.709868 1.781183,-1.406285 2.854833,-1.575081 0.621964,-0.09778 1.398233,-0.07341 1.854002,0.360955 0.415773,0.39625 0.497354,1.105826 0.410178,1.673524 -0.09125,0.594255 -0.427512,1.220219 -0.935204,1.542267 -0.264694,0.167906 -0.656703,0.242288 -0.935205,0.09844 -0.267606,-0.138221 -0.359036,-0.498284 -0.442991,-0.78754 -0.05801,-0.199864 -0.03281,-0.623473 -0.03281,-0.623473 z"
         id="path4"
         sodipodi:nodetypes="cccaaaaaaaaaaaaaaaaaaaaacacaaaaaaaaaaaaaaaaacc" /></g></g></svg>
